<?xml version="1.0" encoding="utf-8"?>
<!-- Generator: Adobe Illustrator 23.0.3, SVG Export Plug-In . SVG Version: 6.00 Build 0)  -->
<svg version="1.1" xmlns="http://www.w3.org/2000/svg" xmlns:xlink="http://www.w3.org/1999/xlink" x="0px" y="0px"
	 viewBox="0 0 595.3 314.4" style="enable-background:new 0 0 595.3 314.4;" xml:space="preserve">
<style type="text/css">
	.st0{fill:#F39F83;enable-background:new    ;}
	.st1{fill:#FF451F;}
	.st2{fill:#FFFFFF;}
	.st3{fill:#83D78E;stroke:#83D78E;}
	.st4{fill:#009917;stroke:#009917;}
	.st5{fill:#72C2F1;stroke:#72C2F1;}
	.st6{fill:#2B589B;stroke:#2B589B;}
	.st7{fill:#CB69B5;stroke:#CB69B5;}
	.st8{fill:#A20093;stroke:#A20093;}
	.st9{fill:#F8E185;stroke:#F8E185;}
	.st10{fill:#F39900;stroke:#F39900;}
</style>
<g id="north">
	<path class="st0" d="M149.3,75.5l30.1-22.8h15.6l8.7,8.7c0,0,4.7,16.1,4.8,17.8v2.6l-13.3,15.1c0,0-10.6,5.5-17.5,2.4l-2.7-4.7
		l-1.8-0.3c0,0-9.6,6.8-15.4,0.2l0.2-4.2l-2.9-1.3l1.8-3.5l-3.9-1.3C152.8,84.2,149.3,77.5,149.3,75.5z"/>
	<path class="st0" d="M215.3,72.2l1.8-1.4l16.6,0.7l9.8-12.9l22-10.9l17.8-15.4l23-4.5l5.3,5.3h7.9c0,0,39.5,15.6,24.8,18
		c0,0-5.5,1-4.2,2.1c1.3,1.1,11.7,4.8,11.7,4.8l-1.6,9.6l8.5,4.7c0,0-8.8,32.3-17.2,31l-17,0l-0.2,2.1l2.1,3.1l1.1,3.9l0.8,2.6h5.6
		l9.8-4.7l1.1,1.1l0.2,3.5c0,0-2.1,0-2.1,0.8c0,0.8-0.3,1.8-0.3,1.8h-3.4c0,0-20.7,7.7-37.8,2.7l-5.3,12.4c0,0,2.4,1.4,3.9,1.1
		c0,0,0,7.7-0.5,7.4s10.1,0,10.1,0l-0.2,2.2c0,0-3.1,0.3-2.4,2.4c0.6,2.1,4.3,3.9,4.3,3.9l-0.2,9.8c0,0-9.2,1-10.1,1.9
		c-1,1-1.4,10.9-1.4,10.9s6.8,5,14.3,1.1l7.6,9.2l0.3,2.3c0,0-1.1,2.7-2.7,2.6c-1.6-0.2-11.4-4.2-18.6,4.2c0,0-7.1-1.8-8.7-3.5
		l-7.9-0.5l-5.8-8c0,0-9.6-2.9-12.2-7.4c0,0-12.4,5.5-18.2-46.6l-24.8,1l-2.1-5.6l-0.6-6.1l2.1-2.4l-2.6-4.8c0,0-12.1-0.8-13.3-2.7
		c-1.3-1.9,0-10.6,0-10.6S221.6,81.5,215.3,72.2z"/>
	<path class="st1" d="M287,75.4l-10.6-19.6V49c0,0,9.8-16.2,22.2,0v7.1l-10.1,19.3H287z"/>
	<g>
		<g>
			<path d="M263.9,93.7V80.2h1.9l4.3,6.8c1,1.6,1.8,3,2.4,4.4l0,0c-0.2-1.8-0.2-3.4-0.2-5.5v-5.7h1.6v13.5h-1.8l-4.3-6.8
				c-0.9-1.5-1.8-3-2.5-4.5l-0.1,0c0.1,1.7,0.1,3.3,0.1,5.6v5.8H263.9z"/>
			<path d="M285.9,88.7c0,3.6-2.5,5.2-4.8,5.2c-2.6,0-4.7-1.9-4.7-5c0-3.2,2.1-5.1,4.8-5.1C284,83.8,285.9,85.8,285.9,88.7z
				 M278.2,88.8c0,2.1,1.2,3.7,2.9,3.7c1.7,0,2.9-1.6,2.9-3.8c0-1.6-0.8-3.7-2.9-3.7C279.1,85.1,278.2,87,278.2,88.8z"/>
			<path d="M288.3,87c0-1.1,0-2.1-0.1-3h1.5l0.1,1.9h0.1c0.5-1.3,1.5-2.1,2.7-2.1c0.2,0,0.3,0,0.5,0v1.7c-0.2,0-0.4-0.1-0.6-0.1
				c-1.2,0-2.1,0.9-2.4,2.3c0,0.2-0.1,0.5-0.1,0.8v5.2h-1.8V87z"/>
			<path d="M297.1,81.2V84h2.5v1.3h-2.5v5.2c0,1.2,0.3,1.9,1.3,1.9c0.5,0,0.8-0.1,1-0.1l0.1,1.3c-0.3,0.1-0.9,0.2-1.6,0.2
				c-0.8,0-1.5-0.3-1.9-0.7c-0.5-0.5-0.7-1.4-0.7-2.5v-5.3h-1.5V84h1.5v-2.3L297.1,81.2z"/>
			<path d="M301.8,79.5h1.8v6h0c0.3-0.5,0.7-0.9,1.3-1.2c0.5-0.3,1.1-0.5,1.8-0.5c1.3,0,3.4,0.8,3.4,4.1v5.8h-1.8v-5.6
				c0-1.6-0.6-2.9-2.2-2.9c-1.2,0-2,0.8-2.4,1.8c-0.1,0.2-0.1,0.5-0.1,0.8v5.8h-1.8V79.5z"/>
		</g>
	</g>
	<circle class="st2" cx="287.5" cy="52.7" r="6"/>
</g>
<g id="east">
	<path class="st3" d="M421,131.6l1.9-1.6v-4l9.2-7.4h1.3v7.2c0,0,12.1,0.8,12.6,0.9s29.1,17.7,29.1,17.7h10.2l13.7-10.1
		c0,0,0.5-8,10.2-9.6c9.6-1.6,14.9,0,14.9,0l10.3,7.3l-0.4,15.2c0,0-16.4,17.3-27.5,40.8l-6.3,7.1c0,0-4.1,8-5.9,10.6
		c-1.8,2.6-13.8,9.1-13.8,9.1l-4.8,13.8l-7.6,4.1c0,0-38.4,8.6-39.6,8.1c-1.3-0.4-2.6-12.3-2.6-12.3l-11.6,0.4l-5.1-12.3v-14.8
		l-9.9-10.2c0,0,9.8-13.1-4-12.9v-5.5l4.1-3.9l6.4-0.8c0,0,6.3-22.4,11.1-25.7c4.8-3.3,7.6-6,7.6-6S426,136.7,421,131.6z"/>
	<path class="st4" d="M459.6,172.2L449,152.6v-6.8c0,0,9.8-16.2,22.2,0v7.1L461,172.2H459.6z"/>
	<circle class="st2" cx="460.1" cy="150.3" r="6"/>
	<g>
		<g>
			<path d="M450.9,184.3h-5.2v4.9h5.8v1.5H444v-13.5h7.3v1.5h-5.5v4.3h5.2V184.3z"/>
			<path d="M459.3,190.6l-0.2-1.2h-0.1c-0.5,0.8-1.6,1.4-3,1.4c-2,0-3-1.4-3-2.8c0-2.3,2.1-3.6,5.8-3.6v-0.2c0-0.8-0.2-2.2-2.2-2.2
				c-0.9,0-1.8,0.3-2.5,0.7l-0.4-1.2c0.8-0.5,2-0.8,3.2-0.8c3,0,3.7,2,3.7,4v3.6c0,0.8,0,1.7,0.1,2.3H459.3z M459,185.7
				c-1.9,0-4.1,0.3-4.1,2.2c0,1.2,0.8,1.7,1.6,1.7c1.3,0,2.1-0.8,2.4-1.6c0.1-0.2,0.1-0.4,0.1-0.6V185.7z"/>
			<path d="M463.5,188.8c0.5,0.3,1.5,0.7,2.3,0.7c1.3,0,1.9-0.6,1.9-1.4c0-0.8-0.5-1.3-1.8-1.8c-1.7-0.6-2.6-1.6-2.6-2.7
				c0-1.6,1.3-2.8,3.3-2.8c1,0,1.8,0.3,2.4,0.6l-0.4,1.3c-0.4-0.2-1.1-0.6-2-0.6c-1,0-1.6,0.6-1.6,1.3c0,0.8,0.6,1.2,1.8,1.6
				c1.7,0.6,2.5,1.5,2.5,2.9c0,1.7-1.3,2.9-3.6,2.9c-1.1,0-2-0.3-2.7-0.7L463.5,188.8z"/>
			<path d="M473.9,178.2v2.8h2.5v1.3h-2.5v5.2c0,1.2,0.3,1.9,1.3,1.9c0.5,0,0.8-0.1,1-0.1l0.1,1.3c-0.3,0.1-0.9,0.2-1.6,0.2
				c-0.8,0-1.5-0.3-1.9-0.7c-0.5-0.5-0.7-1.4-0.7-2.5v-5.3h-1.5V181h1.5v-2.3L473.9,178.2z"/>
		</g>
	</g>
</g>
<g id="west">
	<path class="st5" d="M145.7,76.5l4.2,9.3l2.4,1.3l-1.9,3.2l3.5,1.3v4.3l6.4,4.3c0,0,7.7,0.5,12.9-1.9l2.3,3.5l6.8,1.1v2.6
		c0,0,11.3,0.2,5.6,9.2l-5.8,9l0.2,6.8c0,0,1.4,4,4.2,0l10.9-16.6V103l5.1-5.6v7.9c0,0,10,6.1,14.6,4.3c0,0,3.7,1.8-0.8,5.4
		l3.1,14.3l26-1.6c0,0,3.5,46.9,19.3,46.9v2.1h-6.1c0,0,0,3.1,1,3.5l0.3,2.4h-2.9c0,0-4.2,1.4-5.3,1.9l-1.8-1.6c0,0-3.9-1.1-9.5-5.3
		l-4.3,1.8l-4.8-0.3c0,0,1.6,6.3,2.3,6.3l-2.6,1.8l3.2,12.1l9.6,6.9v1.3l-3.2,2.3c0,0,1.8,15.9-0.3,19.8l-2.4,14.6l-12.5-12.5
		l-6.4,0.8l5.1,7.1l-4.3,4.7c0,0-22.5-6.1-26.7-4.8l-3.4-5.9h-15.1l-11.7,5.9l-23.5,0.6l-6.9-7.1l-0.6,6.9l-4.3,0.6l-8.7-7.2
		l-2.4,1.3l2.7,8l-10,6.1l-19.8-27l-13.8-8.8l-2.4,9.5l6.9,5.9l-6.9,14.3v1.3l18.8,9.3l-0.3,3.5l-27.8-1.9l-4.3-8.8
		c0,0,18.8-50.1,21.2-52.1l0.6-3.7l-1.6-3.5v-1.8l3.2-0.8l4.3,1l5.9-0.2v-2.1l-3.7-8.7l0.3-3.9l1.9-3.5l14.1-17.2l14.5-6.9
		l-10.3-5.9l-1-4.3c0,0,0.5-4,0.5-4.5s1.3-5.8,1.3-5.8l1.1-4.5l2.3-6.9l8.7-6.6l3.4-16.6C126.3,87.3,129,78.4,145.7,76.5z"/>
	<path class="st6" d="M163.7,168.2l-10.6-19.6v-6.8c0,0,9.8-16.2,22.2,0v7.1l-10.1,19.3H163.7z"/>
	<g>
		<g>
			<path d="M146.7,186.1l-3.4-13.5h1.8l1.6,6.8c0.4,1.7,0.7,3.4,1,4.7h0c0.2-1.3,0.6-2.9,1.1-4.7l1.8-6.8h1.8l1.6,6.8
				c0.4,1.6,0.7,3.2,0.9,4.6h0c0.3-1.5,0.6-3,1.1-4.7l1.8-6.8h1.8l-3.8,13.5h-1.8l-1.7-7c-0.4-1.7-0.7-3-0.9-4.4h0
				c-0.2,1.4-0.5,2.7-1,4.4l-1.9,7H146.7z"/>
			<path d="M162.5,181.6c0,2.4,1.5,3.4,3.3,3.4c1.3,0,2-0.2,2.7-0.5l0.3,1.3c-0.6,0.3-1.7,0.6-3.2,0.6c-3,0-4.8-2-4.8-4.9
				c0-2.9,1.7-5.2,4.6-5.2c3.2,0,4,2.8,4,4.6c0,0.4,0,0.6-0.1,0.8H162.5z M167.6,180.3c0-1.1-0.5-2.8-2.4-2.8
				c-1.8,0-2.6,1.6-2.7,2.8H167.6z"/>
			<path d="M171.4,184.3c0.5,0.3,1.5,0.7,2.3,0.7c1.3,0,1.9-0.6,1.9-1.4c0-0.8-0.5-1.3-1.8-1.8c-1.7-0.6-2.6-1.6-2.6-2.7
				c0-1.6,1.3-2.8,3.3-2.8c1,0,1.8,0.3,2.4,0.6l-0.4,1.3c-0.4-0.2-1.1-0.6-2-0.6c-1,0-1.6,0.6-1.6,1.3c0,0.8,0.6,1.2,1.8,1.7
				c1.7,0.6,2.5,1.5,2.5,2.9c0,1.7-1.3,2.9-3.6,2.9c-1.1,0-2-0.3-2.7-0.7L171.4,184.3z"/>
			<path d="M181.9,173.6v2.8h2.5v1.3h-2.5v5.2c0,1.2,0.3,1.9,1.3,1.9c0.5,0,0.8-0.1,1-0.1l0.1,1.3c-0.3,0.1-0.9,0.2-1.6,0.2
				c-0.8,0-1.5-0.3-1.9-0.7c-0.5-0.5-0.7-1.4-0.7-2.5v-5.3h-1.5v-1.3h1.5v-2.3L181.9,173.6z"/>
		</g>
	</g>
	<circle class="st2" cx="164.2" cy="145.4" r="6"/>
</g>
<g id="northeast">
	<path class="st7" d="M396.7,97.3c0,0,1.7,14.3,13.3,9.3l2.8-10.8l3.3-3l1.3-0.9l1.5,0.5l13.7,18.2v4.1l-10.6,9.6l-0.4,3.7
		c0,0-3.5,2.4-4,2.3c-0.4-0.1,0.1,1.1,0.1,1.1l4.1,4.5l-0.4,1l-9,7.3c0,0-5.5,12.2-8,21.5l-1.4,1.3h-4.5l-4.4,5.1l-0.6,1.7l-0.6,8.3
		h5.1c0,0,5.3,0.9,0.1,7.3l-8.9,6.2c0,0-4.9-20-17.4-13.8c-1.1,0.5-17.9,2.3-17.9,2.3s-2.6-15.8-9.9-20.8c0,0-7.3-7.3-29.4-11.3
		l-0.8-4.1l-2.7-2.1v-1l0.9-0.1l0.8-2.3l0.1-4.2l-9.1-0.3l-0.5-5.9l-1.3-1.3l-2.6-0.1v-1.9l2.9-6.1c0,0,9.3,6.6,42-3.2l4.3-3.9
		l-0.4-4.2l-0.5-2.7l2.3-1.1c0,0,6-17.4,18.6-22.1l3.4,3.2l5.8,1.4l6.8,2.6l9.2,3.3L396.7,97.3z"/>
	<path class="st8" d="M369.3,123.4l-10.6-19.6V97c0,0,9.8-16.2,22.2,0v7.1l-10.1,19.3H369.3z"/>
	<circle class="st2" cx="369.8" cy="100.6" r="6"/>
	<g>
		<g>
			<path d="M328.6,142.3v-13.5h1.9l4.3,6.8c1,1.6,1.8,3,2.4,4.4l0,0c-0.2-1.8-0.2-3.4-0.2-5.5v-5.7h1.6v13.5H337l-4.3-6.8
				c-0.9-1.5-1.8-3-2.5-4.5l-0.1,0c0.1,1.7,0.1,3.3,0.1,5.6v5.8H328.6z"/>
			<path d="M350.6,137.4c0,3.6-2.5,5.2-4.8,5.2c-2.6,0-4.7-1.9-4.7-5c0-3.2,2.1-5.1,4.8-5.1C348.8,132.4,350.6,134.5,350.6,137.4z
				 M343,137.5c0,2.1,1.2,3.7,2.9,3.7c1.7,0,2.9-1.6,2.9-3.8c0-1.6-0.8-3.7-2.9-3.7C343.9,133.8,343,135.7,343,137.5z"/>
			<path d="M353,135.7c0-1.1,0-2.1-0.1-3h1.5l0.1,1.9h0.1c0.5-1.3,1.5-2.1,2.7-2.1c0.2,0,0.3,0,0.5,0v1.7c-0.2,0-0.4-0.1-0.6-0.1
				c-1.2,0-2.1,0.9-2.4,2.3c0,0.2-0.1,0.5-0.1,0.8v5.2H353V135.7z"/>
			<path d="M361.8,129.9v2.8h2.5v1.3h-2.5v5.2c0,1.2,0.3,1.9,1.3,1.9c0.5,0,0.8-0.1,1-0.1l0.1,1.3c-0.3,0.1-0.9,0.2-1.6,0.2
				c-0.8,0-1.5-0.3-1.9-0.7c-0.5-0.5-0.7-1.4-0.7-2.5V134h-1.5v-1.3h1.5v-2.3L361.8,129.9z"/>
			<path d="M366.5,128.1h1.8v6h0c0.3-0.5,0.7-0.9,1.3-1.2c0.5-0.3,1.1-0.5,1.8-0.5c1.3,0,3.4,0.8,3.4,4.1v5.8H373v-5.6
				c0-1.6-0.6-2.9-2.2-2.9c-1.2,0-2,0.8-2.4,1.8c-0.1,0.2-0.1,0.5-0.1,0.8v5.8h-1.8V128.1z"/>
			<path d="M378.7,137.8c0,2.4,1.5,3.4,3.3,3.4c1.3,0,2-0.2,2.7-0.5l0.3,1.2c-0.6,0.3-1.7,0.6-3.2,0.6c-3,0-4.8-2-4.8-4.9
				c0-2.9,1.7-5.2,4.6-5.2c3.2,0,4,2.8,4,4.6c0,0.4,0,0.6-0.1,0.8H378.7z M383.9,136.6c0-1.1-0.5-2.8-2.4-2.8
				c-1.8,0-2.6,1.6-2.7,2.8H383.9z"/>
			<path d="M393.3,142.3l-0.2-1.2h-0.1c-0.5,0.8-1.6,1.4-3,1.4c-2,0-3-1.4-3-2.8c0-2.3,2.1-3.6,5.8-3.6V136c0-0.8-0.2-2.2-2.2-2.2
				c-0.9,0-1.8,0.3-2.5,0.7l-0.4-1.2c0.8-0.5,2-0.8,3.2-0.8c3,0,3.7,2,3.7,4v3.6c0,0.8,0,1.7,0.1,2.3H393.3z M393,137.4
				c-1.9,0-4.1,0.3-4.1,2.2c0,1.2,0.8,1.7,1.6,1.7c1.3,0,2.1-0.8,2.4-1.6c0.1-0.2,0.1-0.4,0.1-0.6V137.4z"/>
			<path d="M397.5,140.5c0.5,0.3,1.5,0.7,2.3,0.7c1.3,0,1.9-0.6,1.9-1.4c0-0.8-0.5-1.3-1.8-1.8c-1.7-0.6-2.6-1.6-2.6-2.7
				c0-1.6,1.3-2.8,3.3-2.8c1,0,1.8,0.3,2.4,0.6l-0.4,1.3c-0.4-0.2-1.1-0.6-2-0.6c-1,0-1.6,0.6-1.6,1.3c0,0.8,0.6,1.2,1.8,1.6
				c1.7,0.6,2.5,1.5,2.5,2.9c0,1.7-1.3,2.9-3.6,2.9c-1.1,0-2-0.3-2.7-0.7L397.5,140.5z"/>
			<path d="M407.9,129.9v2.8h2.5v1.3h-2.5v5.2c0,1.2,0.3,1.9,1.3,1.9c0.5,0,0.8-0.1,1-0.1l0.1,1.3c-0.3,0.1-0.9,0.2-1.6,0.2
				c-0.8,0-1.5-0.3-1.9-0.7c-0.5-0.5-0.7-1.4-0.7-2.5V134h-1.5v-1.3h1.5v-2.3L407.9,129.9z"/>
		</g>
	</g>
	<path class="st7" d="M371.8,181.8c0,0,12.9,2.1,17.4,13.8l-3.6-20.8L371.8,181.8z"/>
</g>
<g id="central">
	<path class="st9" d="M247.3,204.4l-10.9-6.3l-2.3-8.8l1.3-1.9h1.3l0.2-2.7l-1.3-1.8v-1.4h2.1l3.1-0.5l7.4,4.2v2.6l1.9,0.8l13.3-4
		v-2.6l-1-2.1c0,0,7.8,5.4,19.9,10c0.8,0.3,8.2,0,8.2,0l6.8,4c0,0,2.5,1.4,3.3,1c0.8-0.5,21.9-4.2,21.9-4.2l2.4-6.6l-9.5-13.3
		l-6.6,1.8l-5.8-1.8l-0.8-6.3l1.4-2.1h9.3l0.6-7.6l23,6.3c0,0,9.5,8.5,10.9,11.3l3.2,15.3l20.3-2.3c0,0,10.1-0.6,16.1,14.5l10-5.8
		l9.8,8.7v17c0,0,3.2,3.2,3.5,8.8l1.9,2.9h3.4h7.6l1.8,9.4c0,0-39.7,13.1-57.1,9.2l-3.4-6.1L349.5,260l-5.6,24.1l-9.2,4l-9-5.9
		l-13.2,5.9l-14.1-1.6l-6.1,2.4l-4.2,1c0,0-1.6-0.5-9-11.4L261,267.3l-4.3-9l-15.9-10.9v-12.5l2.9-8l-1-15.4
		C242.6,211.3,248.3,209.4,247.3,204.4z"/>
	<path class="st10" d="M311.4,219.7l-10.6-19.6v-6.8c0,0,9.8-16.2,22.2,0v7.1l-10.1,19.3H311.4z"/>
	<circle class="st2" cx="311.9" cy="196.6" r="6"/>
	<g>
		<g>
			<path d="M291.8,238.4c-0.6,0.3-1.9,0.6-3.6,0.6c-3.8,0-6.6-2.4-6.6-6.8c0-4.2,2.9-7.1,7-7.1c1.7,0,2.7,0.4,3.2,0.6l-0.4,1.4
				c-0.7-0.3-1.6-0.6-2.7-0.6c-3.2,0-5.3,2-5.3,5.6c0,3.3,1.9,5.4,5.2,5.4c1.1,0,2.1-0.2,2.9-0.6L291.8,238.4z"/>
			<path d="M295.1,234.4c0,2.4,1.5,3.4,3.3,3.4c1.3,0,2-0.2,2.7-0.5l0.3,1.2c-0.6,0.3-1.7,0.6-3.2,0.6c-3,0-4.8-2-4.8-4.9
				c0-2.9,1.7-5.2,4.6-5.2c3.2,0,4,2.8,4,4.5c0,0.4,0,0.6-0.1,0.8H295.1z M300.3,233.1c0-1.1-0.5-2.8-2.4-2.8
				c-1.8,0-2.6,1.6-2.7,2.8H300.3z"/>
			<path d="M304.3,231.8c0-1,0-1.8-0.1-2.6h1.6l0.1,1.6h0c0.5-0.9,1.6-1.8,3.2-1.8c1.3,0,3.4,0.8,3.4,4.1v5.8h-1.8v-5.6
				c0-1.6-0.6-2.9-2.2-2.9c-1.2,0-2.1,0.8-2.4,1.8c-0.1,0.2-0.1,0.5-0.1,0.8v5.8h-1.8V231.8z"/>
			<path d="M317.7,226.4v2.8h2.5v1.3h-2.5v5.2c0,1.2,0.3,1.9,1.3,1.9c0.5,0,0.8-0.1,1-0.1l0.1,1.3c-0.3,0.1-0.9,0.2-1.6,0.2
				c-0.8,0-1.5-0.3-1.9-0.7c-0.5-0.5-0.7-1.4-0.7-2.5v-5.3h-1.5v-1.3h1.5v-2.3L317.7,226.4z"/>
			<path d="M322.4,232.2c0-1.1,0-2.1-0.1-3h1.5l0.1,1.9h0.1c0.5-1.3,1.5-2.1,2.7-2.1c0.2,0,0.3,0,0.5,0v1.7c-0.2,0-0.4-0.1-0.6-0.1
				c-1.2,0-2.1,0.9-2.4,2.3c0,0.2-0.1,0.5-0.1,0.8v5.2h-1.8V232.2z"/>
			<path d="M334.4,238.9l-0.2-1.2h-0.1c-0.5,0.8-1.6,1.4-3,1.4c-2,0-3-1.4-3-2.8c0-2.3,2.1-3.6,5.8-3.6v-0.2c0-0.8-0.2-2.2-2.2-2.2
				c-0.9,0-1.8,0.3-2.5,0.7l-0.4-1.2c0.8-0.5,2-0.8,3.2-0.8c3,0,3.7,2,3.7,4v3.6c0,0.8,0,1.7,0.1,2.3H334.4z M334.1,233.9
				c-1.9,0-4.1,0.3-4.1,2.2c0,1.2,0.8,1.7,1.6,1.7c1.3,0,2.1-0.8,2.4-1.6c0.1-0.2,0.1-0.4,0.1-0.6V233.9z"/>
			<path d="M338.9,224.7h1.8v14.2h-1.8V224.7z"/>
		</g>
	</g>
	<path class="st9" d="M262.4,179.8c0,0,12.8-2.6,19.9,10"/>
</g>
</svg>





